<svg width="40" height="40" viewBox="0 0 40 40" fill="none" xmlns="http://www.w3.org/2000/svg">
<g id="arrow_back">
<mask id="mask0_381_1366" style="mask-type:alpha" maskUnits="userSpaceOnUse" x="0" y="0" width="40" height="40">
<rect id="Bounding box" width="40" height="40" fill="#D9D9D9"/>
</mask>
<g mask="url(#mask0_381_1366)">
<path id="arrow_back_2" d="M11.4932 21.0471L20.7457 30.2883C20.9452 30.4964 21.0478 30.7399 21.0536 31.0188C21.0598 31.2976 20.9542 31.5442 20.737 31.7583C20.5198 31.9728 20.2741 32.0814 19.9999 32.0842C19.7257 32.0872 19.48 31.9802 19.2628 31.7629L8.41115 20.9113C8.27532 20.7751 8.17809 20.6333 8.11948 20.4858C8.06115 20.3381 8.03198 20.1757 8.03198 19.9988C8.03198 19.8215 8.06115 19.6596 8.11948 19.5129C8.17809 19.3663 8.27532 19.2249 8.41115 19.0888L19.2628 8.23709C19.4636 8.03626 19.7045 7.9332 19.9853 7.92793C20.2664 7.92265 20.517 8.0257 20.737 8.23709C20.9542 8.45737 21.0628 8.70529 21.0628 8.98084C21.0628 9.2564 20.9542 9.49932 20.737 9.70959L11.4932 18.9529H31.4528C31.7548 18.9529 32.0048 19.0521 32.2028 19.2504C32.4009 19.4485 32.4999 19.6983 32.4999 20C32.4999 20.302 32.4009 20.552 32.2028 20.75C32.0048 20.9481 31.7548 21.0471 31.4528 21.0471H11.4932Z" fill="#1C1B1F"/>
</g>
</g>
</svg>
