<svg width="20" height="20" viewBox="0 0 20 20" fill="none" xmlns="http://www.w3.org/2000/svg">
<g id="arrow_back_ios_new_FILL0_wght300_GRAD0_opsz40 1">
<path id="Vector" d="M9.99998 12.4872L16.4888 5.99839C16.628 5.85914 16.7981 5.79023 16.9989 5.79166C17.1998 5.79308 17.3727 5.86341 17.5176 6.00266C17.6625 6.14404 17.735 6.31604 17.735 6.51866C17.735 6.7213 17.6625 6.89509 17.5176 7.04004L10.9124 13.6442C10.7824 13.7742 10.638 13.8689 10.4791 13.9284C10.3203 13.9878 10.1606 14.0176 9.99998 14.0176C9.83937 14.0176 9.67965 13.9878 9.52082 13.9284C9.36198 13.8689 9.2158 13.7742 9.08225 13.6442L2.46955 7.02614C2.3246 6.88477 2.25427 6.71436 2.25855 6.51493C2.26282 6.3155 2.33743 6.14332 2.48236 5.99839C2.6273 5.85914 2.79877 5.78809 2.99677 5.78524C3.19477 5.7824 3.36625 5.85345 3.51119 5.99839L9.99998 12.4872Z" fill="#525252"/>
</g>
</svg>
