<svg width="28" height="28" viewBox="0 0 28 28" fill="none" xmlns="http://www.w3.org/2000/svg">
<mask id="mask0_312_504" style="mask-type:alpha" maskUnits="userSpaceOnUse" x="0" y="0" width="28" height="28">
<rect x="1" y="1" width="26" height="26" fill="white" stroke="#3686FF" stroke-width="2"/>
</mask>
<g mask="url(#mask0_312_504)">
<path d="M14 24.6668C12.5305 24.6668 11.1556 24.3865 9.86575 23.8299C8.55822 23.2657 7.42666 22.5015 6.46251 21.5375C5.4986 20.5734 4.73444 19.4419 4.17026 18.1344C3.61367 16.8446 3.33334 15.4697 3.33334 14.0002C3.33334 12.5164 3.61412 11.1352 4.17026 9.84636C4.73422 8.53941 5.49776 7.41208 6.46035 6.45532C7.42471 5.497 8.55695 4.73517 9.86575 4.17041C11.1556 3.61383 12.5305 3.3335 14 3.3335C15.4837 3.3335 16.865 3.61427 18.1538 4.17041C19.4621 4.73493 20.5901 5.49613 21.5471 6.4531C22.504 7.41007 23.2652 8.53811 23.8298 9.84636C24.3859 11.1352 24.6667 12.5164 24.6667 14.0002C24.6667 15.4697 24.3863 16.8446 23.8298 18.1344C23.265 19.4432 22.5032 20.5754 21.5449 21.5398C20.5881 22.5024 19.4608 23.2659 18.1538 23.8299C16.865 24.3861 15.4838 24.6668 14 24.6668Z" fill="white" stroke="#3686FF" stroke-width="2"/>
</g>
</svg>
