<svg width="32" height="32" viewBox="0 0 32 32" fill="none" xmlns="http://www.w3.org/2000/svg">
<mask id="mask0_312_495" style="mask-type:alpha" maskUnits="userSpaceOnUse" x="0" y="0" width="32" height="32">
<rect width="32" height="32" fill="#D9D9D9"/>
</mask>
<g mask="url(#mask0_312_495)">
<path d="M14.0667 22.0888L23.489 12.6665L21.8444 11.0442L14.0667 18.8222L10.1334 14.8888L8.51102 16.5108L14.0667 22.0888ZM16 29.3332C14.1705 29.3332 12.4446 28.9832 10.8224 28.2832C9.20013 27.5832 7.78524 26.6295 6.57769 25.4222C5.37035 24.2146 4.41669 22.7997 3.71669 21.1775C3.01669 19.5553 2.66669 17.8294 2.66669 15.9998C2.66669 14.1554 3.01669 12.4221 3.71669 10.7998C4.41669 9.17762 5.37035 7.7665 6.57769 6.5665C7.78524 5.3665 9.20013 4.4165 10.8224 3.7165C12.4446 3.0165 14.1705 2.6665 16 2.6665C17.8445 2.6665 19.5778 3.0165 21.2 3.7165C22.8222 4.4165 24.2334 5.3665 25.4334 6.5665C26.6334 7.7665 27.5834 9.17762 28.2834 10.7998C28.9834 12.4221 29.3334 14.1554 29.3334 15.9998C29.3334 17.8294 28.9834 19.5553 28.2834 21.1775C27.5834 22.7997 26.6334 24.2146 25.4334 25.4222C24.2334 26.6295 22.8222 27.5832 21.2 28.2832C19.5778 28.9832 17.8445 29.3332 16 29.3332Z" fill="#3686FF"/>
</g>
</svg>
