<svg width="32" height="32" viewBox="0 0 32 32" fill="none" xmlns="http://www.w3.org/2000/svg">
<path d="M11.2991 23.1188L16 20.288L20.7009 23.1521L19.4607 17.7931L23.5983 14.2051L18.1453 13.7222L16 8.67434L13.8547 13.6889L8.4017 14.1718L12.5393 17.7795L11.2991 23.1188ZM16 22.2512L10.4881 25.5777C10.328 25.6666 10.166 25.7057 10.0022 25.6952C9.83837 25.6847 9.68981 25.6321 9.55647 25.5375C9.42314 25.4429 9.32201 25.3189 9.25307 25.1653C9.18412 25.0118 9.17414 24.8412 9.22314 24.6538L10.677 18.3897L5.82231 14.1641C5.67531 14.0393 5.58286 13.8956 5.54497 13.7329C5.50708 13.5702 5.51492 13.4103 5.56847 13.253C5.61634 13.1014 5.7018 12.9754 5.82487 12.8748C5.94794 12.7742 6.10548 12.7134 6.29751 12.6923L12.7154 12.1282L15.2103 6.20604C15.2866 6.03795 15.3973 5.91117 15.5423 5.82571C15.6873 5.74024 15.8399 5.69751 16 5.69751C16.1601 5.69751 16.3127 5.74024 16.4577 5.82571C16.6027 5.91117 16.7134 6.03795 16.7897 6.20604L19.2846 12.1282L25.7025 12.6923C25.8945 12.7134 26.0521 12.7742 26.1751 12.8748C26.2982 12.9754 26.3865 13.1014 26.4401 13.253C26.4879 13.4103 26.4929 13.5702 26.455 13.7329C26.4172 13.8956 26.3247 14.0393 26.1777 14.1641L21.323 18.3897L22.7854 24.6538C22.8287 24.8412 22.8159 25.0118 22.747 25.1653C22.678 25.3189 22.5769 25.4429 22.4435 25.5375C22.3102 25.6321 22.1616 25.6847 21.9978 25.6952C21.834 25.7057 21.672 25.6666 21.5119 25.5777L16 22.2512Z" fill="#525252"/>
</svg>
