<svg width="48" height="48" viewBox="0 0 48 48" fill="none" xmlns="http://www.w3.org/2000/svg">
<mask id="mask0_314_613" style="mask-type:alpha" maskUnits="userSpaceOnUse" x="0" y="0" width="48" height="48">
<rect width="48" height="48" fill="#D9D9D9"/>
</mask>
<g mask="url(#mask0_314_613)">
<path d="M11.25 44C9.79167 44 8.55217 43.4895 7.5315 42.4685C6.5105 41.4478 6 40.2083 6 38.75V32H12V4H42V38.75C42 40.2083 41.4897 41.4478 40.469 42.4685C39.448 43.4895 38.2083 44 36.75 44H11.25ZM36.7455 41C37.3818 41 37.9167 40.7843 38.35 40.353C38.7833 39.9217 39 39.3873 39 38.75V7H15V32H34.5V38.75C34.5 39.3873 34.7152 39.9217 35.1455 40.353C35.5758 40.7843 36.1092 41 36.7455 41ZM18 16V13H36V16H18ZM18 22V19H36V22H18ZM11.2 41H31.5V35H9V38.75C9 39.3873 9.21667 39.9217 9.65 40.353C10.0833 40.7843 10.6 41 11.2 41ZM11.2 41H9H31.5H11.2Z" fill="#3686FF"/>
</g>
</svg>
