<svg width="48" height="48" viewBox="0 0 48 48" fill="none" xmlns="http://www.w3.org/2000/svg">
<mask id="mask0_314_627" style="mask-type:alpha" maskUnits="userSpaceOnUse" x="0" y="0" width="48" height="48">
<rect width="48" height="48" fill="#D9D9D9"/>
</mask>
<g mask="url(#mask0_314_627)">
<path d="M32 42C30.9 42 29.9583 41.6083 29.175 40.825C28.3917 40.0417 28 39.1 28 38V30C28 28.9 28.3917 27.9583 29.175 27.175C29.9583 26.3917 30.9 26 32 26H40C41.1 26 42.0417 26.3917 42.825 27.175C43.6083 27.9583 44 28.9 44 30V38C44 39.1 43.6083 40.0417 42.825 40.825C42.0417 41.6083 41.1 42 40 42H32ZM31 39H41V29H31V39ZM4 35.5V32.5H22V35.5H4ZM32 22C30.9 22 29.9583 21.6083 29.175 20.825C28.3917 20.0417 28 19.1 28 18V10C28 8.9 28.3917 7.95833 29.175 7.175C29.9583 6.39167 30.9 6 32 6H40C41.1 6 42.0417 6.39167 42.825 7.175C43.6083 7.95833 44 8.9 44 10V18C44 19.1 43.6083 20.0417 42.825 20.825C42.0417 21.6083 41.1 22 40 22H32ZM31 19H41V9H31V19ZM4 15.5V12.5H22V15.5H4Z" fill="#3686FF"/>
</g>
</svg>
