<svg width="32" height="32" viewBox="0 0 32 32" fill="none" xmlns="http://www.w3.org/2000/svg">
<path d="M6.75215 27.3333C6.17909 27.3333 5.68824 27.129 5.27962 26.7204C4.871 26.3118 4.66669 25.8209 4.66669 25.2479V6.75222C4.66669 6.17915 4.871 5.6883 5.27962 5.27968C5.68824 4.87106 6.17909 4.66675 6.75215 4.66675H15.1487V6.34191H6.75215C6.64958 6.34191 6.55555 6.38466 6.47009 6.47015C6.3846 6.55562 6.34185 6.64964 6.34185 6.75222V25.2479C6.34185 25.3505 6.3846 25.4445 6.47009 25.5299C6.55555 25.6154 6.64958 25.6582 6.75215 25.6582H25.2478C25.3504 25.6582 25.4444 25.6154 25.5299 25.5299C25.6154 25.4445 25.6581 25.3505 25.6581 25.2479V16.8514H27.3333V25.2479C27.3333 25.8209 27.129 26.3118 26.7204 26.7204C26.3117 27.129 25.8209 27.3333 25.2478 27.3333H6.75215ZM12.8598 20.3333L11.6804 19.1402L24.4787 6.34191H18.0034V4.66675H27.3333V13.9966H25.6581V7.53505L12.8598 20.3333Z" fill="#525252"/>
</svg>
