<svg width="126" height="126" viewBox="0 0 126 126" fill="none" xmlns="http://www.w3.org/2000/svg">
<path d="M0 18C0 8.05887 8.05888 0 18 0H108C117.941 0 126 8.05888 126 18V108C126 117.941 117.941 126 108 126H18C8.05887 126 0 117.941 0 108V18Z" fill="white"/>
<path d="M17.262 72V53.1H24.012C25.974 53.1 27.459 53.55 28.467 54.45C29.475 55.35 29.979 56.511 29.979 57.933C29.979 59.031 29.691 59.922 29.115 60.606C28.539 61.29 27.873 61.785 27.117 62.091V62.28C28.017 62.604 28.791 63.135 29.439 63.873C30.087 64.593 30.411 65.547 30.411 66.735C30.411 67.707 30.168 68.598 29.682 69.408C29.214 70.2 28.521 70.83 27.603 71.298C26.685 71.766 25.56 72 24.228 72H17.262ZM20.124 60.984H23.661C24.759 60.984 25.596 60.768 26.172 60.336C26.748 59.886 27.036 59.211 27.036 58.311C27.036 56.529 25.893 55.638 23.607 55.638H20.124V60.984ZM20.124 69.354H23.85C25.02 69.354 25.92 69.102 26.55 68.598C27.18 68.094 27.495 67.356 27.495 66.384C27.495 65.43 27.162 64.701 26.496 64.197C25.83 63.675 24.93 63.414 23.796 63.414H20.124V69.354ZM33.4245 72V53.1H39.6075C41.0835 53.1 42.2985 53.352 43.2525 53.856C44.2245 54.36 44.9445 55.044 45.4125 55.908C45.8985 56.754 46.1415 57.717 46.1415 58.797C46.1415 60.021 45.8265 61.11 45.1965 62.064C44.5845 63 43.6395 63.684 42.3615 64.116L46.3305 72H43.0095L39.3915 64.521H36.2865V72H33.4245ZM36.2865 61.929H39.4455C40.7415 61.929 41.6865 61.641 42.2805 61.065C42.8925 60.489 43.1985 59.733 43.1985 58.797C43.1985 57.843 42.9015 57.087 42.3075 56.529C41.7135 55.953 40.7505 55.665 39.4185 55.665H36.2865V61.929ZM49.6139 72V69.462H53.7179V55.638H49.6679V53.1H60.6299V55.638H56.5799V69.462H60.6839V72H49.6139ZM64.2374 72V53.1H68.7734C71.8154 53.1 74.0744 53.946 75.5504 55.638C77.0264 57.312 77.7644 59.616 77.7644 62.55C77.7644 65.484 77.0264 67.797 75.5504 69.489C74.0744 71.163 71.8154 72 68.7734 72H64.2374ZM67.0994 69.354H68.6654C70.8614 69.354 72.4454 68.742 73.4174 67.518C74.3894 66.276 74.8754 64.62 74.8754 62.55C74.8754 60.48 74.3894 58.833 73.4174 57.609C72.4454 56.367 70.8614 55.746 68.6654 55.746H67.0994V69.354ZM86.2048 72.324C84.8008 72.324 83.5678 71.928 82.5058 71.136C81.4438 70.326 80.6158 69.192 80.0218 67.734C79.4278 66.276 79.1308 64.548 79.1308 62.55C79.1308 60.588 79.4278 58.878 80.0218 57.42C80.6158 55.962 81.4618 54.828 82.5598 54.018C83.6758 53.19 85.0078 52.776 86.5558 52.776C88.4278 52.776 89.9308 53.289 91.0648 54.315C92.2168 55.341 92.9188 56.79 93.1708 58.662H90.0658C89.8858 57.69 89.4898 56.916 88.8778 56.34C88.2838 55.764 87.5098 55.476 86.5558 55.476C85.0978 55.476 83.9818 56.106 83.2078 57.366C82.4338 58.626 82.0468 60.354 82.0468 62.55C82.0468 64.836 82.4518 66.591 83.2618 67.815C84.0898 69.021 85.1608 69.624 86.4748 69.624C87.3568 69.624 88.0858 69.363 88.6618 68.841C89.2378 68.319 89.6788 67.653 89.9848 66.843C90.2908 66.015 90.4798 65.142 90.5518 64.224H86.5828V61.848H93.4408V72H90.7948L90.6058 69.462H90.4438C90.0838 70.29 89.5798 70.974 88.9318 71.514C88.2838 72.054 87.3748 72.324 86.2048 72.324ZM96.1573 72V53.1H108.226V55.665H99.0193V61.173H107.416V63.711H99.0193V69.435H108.226V72H96.1573Z" fill="#3686FF"/>
</svg>
