<svg width="40" height="40" viewBox="0 0 40 40" fill="none" xmlns="http://www.w3.org/2000/svg">
<path d="M18.171 28.7446L27.0726 19.8536L25.6432 18.4242L18.1624 25.9156L14.2415 21.9947L12.8313 23.4049L18.171 28.7446ZM10.1069 35.8333C9.39056 35.8333 8.77701 35.5779 8.26623 35.0671C7.75545 34.5564 7.50006 33.9428 7.50006 33.2265V6.77355C7.50006 6.05722 7.75545 5.44366 8.26623 4.93288C8.77701 4.42211 9.39056 4.16672 10.1069 4.16672H24.1731L32.5 12.4936V33.2265C32.5 33.9428 32.2446 34.5564 31.7338 35.0671C31.223 35.5779 30.6095 35.8333 29.8931 35.8333H10.1069ZM23.1261 13.4786V6.26068H10.1069C9.97867 6.26068 9.86114 6.31411 9.75431 6.42097C9.64745 6.5278 9.59402 6.64533 9.59402 6.77355V33.2265C9.59402 33.3547 9.64745 33.4722 9.75431 33.5791C9.86114 33.6859 9.97867 33.7393 10.1069 33.7393H29.8931C30.0214 33.7393 30.1389 33.6859 30.2457 33.5791C30.3526 33.4722 30.406 33.3547 30.406 33.2265V13.4786H23.1261Z" fill="black"/>
</svg>
