<svg width="24" height="24" viewBox="0 0 24 24" fill="none" xmlns="http://www.w3.org/2000/svg">
<path d="M5.87435 17.5462C6.8235 16.8769 7.79454 16.3552 8.78748 15.9808C9.78043 15.6064 10.8513 15.4193 12 15.4193C13.1487 15.4193 14.2212 15.6064 15.2176 15.9808C16.214 16.3552 17.1867 16.8769 18.1359 17.5462C18.8277 16.7569 19.352 15.9003 19.7086 14.9764C20.0653 14.0525 20.2436 13.0604 20.2436 12C20.2436 9.68847 19.4475 7.73666 17.8554 6.14456C16.2633 4.55246 14.3115 3.75641 12 3.75641C9.68844 3.75641 7.73663 4.55246 6.14453 6.14456C4.55243 7.73666 3.75638 9.68847 3.75638 12C3.75638 13.0604 3.9364 14.0525 4.29645 14.9764C4.6565 15.9003 5.18247 16.7569 5.87435 17.5462ZM11.9965 12.6282C11.0928 12.6282 10.332 12.318 9.7141 11.6978C9.09615 11.0775 8.78718 10.3155 8.78718 9.41188C8.78718 8.50825 9.09732 7.74746 9.7176 7.12951C10.3379 6.51156 11.0999 6.20258 12.0035 6.20258C12.9071 6.20258 13.6679 6.51273 14.2859 7.13303C14.9038 7.75331 15.2128 8.51527 15.2128 9.41891C15.2128 10.3225 14.9026 11.0833 14.2824 11.7013C13.6621 12.3192 12.9001 12.6282 11.9965 12.6282ZM12.0078 21.5C10.6902 21.5 9.45413 21.2519 8.29958 20.7557C7.14504 20.2596 6.13789 19.5812 5.27813 18.7205C4.41836 17.8598 3.7404 16.854 3.24425 15.7029C2.74808 14.5519 2.5 13.3172 2.5 11.9988C2.5 10.6804 2.74808 9.44606 3.24425 8.29586C3.7404 7.14564 4.41882 6.1402 5.2795 5.27953C6.14017 4.41885 7.14602 3.74043 8.29705 3.24428C9.44808 2.74811 10.6828 2.50003 12.0012 2.50003C13.3196 2.50003 14.5539 2.74811 15.7041 3.24428C16.8543 3.74043 17.8598 4.41885 18.7205 5.27953C19.5811 6.1402 20.2596 7.14581 20.7557 8.29638C21.2519 9.44695 21.5 10.6789 21.5 11.9922C21.5 13.3098 21.2519 14.5459 20.7557 15.7004C20.2596 16.8549 19.5811 17.8621 18.7205 18.7219C17.8598 19.5816 16.8542 20.2596 15.7036 20.7557C14.553 21.2519 13.3211 21.5 12.0078 21.5ZM12 20.2436C12.9205 20.2436 13.8217 20.0967 14.7035 19.8029C15.5854 19.5091 16.4009 19.0551 17.15 18.441C16.4009 17.882 15.5922 17.4481 14.724 17.1391C13.8559 16.8301 12.9478 16.6756 12 16.6756C11.0521 16.6756 10.1425 16.8285 9.27113 17.1343C8.39974 17.44 7.59483 17.8756 6.85638 18.441C7.60124 19.0551 8.4146 19.5091 9.29645 19.8029C10.1783 20.0967 11.0795 20.2436 12 20.2436ZM12.0009 11.3718C12.5652 11.3718 13.0323 11.1867 13.4019 10.8164C13.7716 10.4462 13.9564 9.97887 13.9564 9.41451C13.9564 8.85014 13.7713 8.38312 13.401 8.01346C13.0308 7.64379 12.5634 7.45896 11.9991 7.45896C11.4347 7.45896 10.9677 7.64409 10.5981 8.01436C10.2284 8.38461 10.0436 8.85191 10.0436 9.41628C10.0436 9.98065 10.2287 10.4477 10.5989 10.8173C10.9692 11.187 11.4365 11.3718 12.0009 11.3718Z" fill="#525252"/>
</svg>
