<svg width="24" height="24" viewBox="0 0 24 24" fill="none" xmlns="http://www.w3.org/2000/svg">
<circle cx="12" cy="12" r="12" fill="#DCDCDC"/>
<path d="M8.32313 17V15.656C9.42179 14.7813 10.3818 13.976 11.2031 13.24C12.0351 12.504 12.6858 11.7947 13.1551 11.112C13.6245 10.4293 13.8591 9.736 13.8591 9.032C13.8591 8.44533 13.6938 7.98667 13.3631 7.656C13.0325 7.31467 12.5845 7.144 12.0191 7.144C11.3685 7.144 10.8671 7.352 10.5151 7.768C10.1631 8.17333 9.98713 8.65867 9.98713 9.224H8.33913C8.34979 8.43467 8.51513 7.77333 8.83513 7.24C9.15513 6.70667 9.58713 6.30133 10.1311 6.024C10.6858 5.74667 11.3151 5.608 12.0191 5.608C13.1605 5.608 14.0405 5.91733 14.6591 6.536C15.2778 7.144 15.5871 7.96 15.5871 8.984C15.5871 9.63467 15.4431 10.264 15.1551 10.872C14.8778 11.4693 14.5098 12.04 14.0511 12.584C13.5925 13.128 13.0805 13.6453 12.5151 14.136C11.9605 14.6267 11.4005 15.096 10.8351 15.544H15.8911V17H8.32313Z" fill="white"/>
</svg>
