<svg width="24" height="24" viewBox="0 0 24 24" fill="none" xmlns="http://www.w3.org/2000/svg">
<circle cx="12" cy="12" r="12" fill="#DCDCDC"/>
<path d="M12.0831 17.192C11.3471 17.192 10.6805 17.0533 10.0831 16.776C9.48579 16.4987 9.01113 16.0933 8.65913 15.56C8.30713 15.016 8.11513 14.36 8.08313 13.592H9.77913C9.81113 14.1787 10.0245 14.664 10.4191 15.048C10.8245 15.432 11.3791 15.624 12.0831 15.624C12.7765 15.624 13.3205 15.4533 13.7151 15.112C14.1098 14.7707 14.3071 14.3013 14.3071 13.704C14.3071 13.0427 14.0671 12.5573 13.5871 12.248C13.1071 11.9387 12.5205 11.784 11.8271 11.784H10.8351V10.28H11.6831C12.3125 10.28 12.8298 10.152 13.2351 9.896C13.6405 9.64 13.8431 9.24 13.8431 8.696C13.8431 8.22667 13.6885 7.85867 13.3791 7.592C13.0698 7.31467 12.6325 7.176 12.0671 7.176C11.4911 7.176 11.0325 7.33067 10.6911 7.64C10.3498 7.94933 10.1578 8.344 10.1151 8.824H8.43513C8.46713 8.184 8.63779 7.624 8.94713 7.144C9.25646 6.664 9.67779 6.29067 10.2111 6.024C10.7445 5.74667 11.3631 5.608 12.0671 5.608C12.8351 5.608 13.4751 5.74133 13.9871 6.008C14.4991 6.264 14.8831 6.61067 15.1391 7.048C15.3951 7.48533 15.5231 7.976 15.5231 8.52C15.5231 9.07467 15.3578 9.55467 15.0271 9.96C14.7071 10.3547 14.3178 10.6427 13.8591 10.824V10.92C14.4778 11.0907 14.9845 11.4107 15.3791 11.88C15.7845 12.3387 15.9871 12.9573 15.9871 13.736C15.9871 14.3653 15.8325 14.9467 15.5231 15.48C15.2245 16.0027 14.7818 16.4187 14.1951 16.728C13.6191 17.0373 12.9151 17.192 12.0831 17.192Z" fill="white"/>
</svg>
