<svg width="24" height="24" viewBox="0 0 24 24" fill="none" xmlns="http://www.w3.org/2000/svg">
<circle cx="12" cy="12" r="12" fill="#DCDCDC"/>
<path d="M11.9871 17.192C11.2085 17.192 10.5311 17.048 9.95513 16.76C9.37913 16.472 8.92579 16.0773 8.59513 15.576C8.27513 15.0747 8.08846 14.5093 8.03513 13.88H9.76313C9.86979 14.4027 10.1151 14.824 10.4991 15.144C10.8938 15.464 11.3951 15.624 12.0031 15.624C12.7178 15.624 13.2831 15.4 13.6991 14.952C14.1151 14.4933 14.3231 13.9067 14.3231 13.192C14.3231 12.4347 14.1098 11.848 13.6831 11.432C13.2565 11.016 12.7125 10.808 12.0511 10.808C11.5178 10.808 11.0645 10.9307 10.6911 11.176C10.3178 11.4213 10.0245 11.7307 9.81113 12.104H8.17913L9.13913 5.8H15.2351V7.368H10.4511L9.90713 10.232H10.0191C10.2431 9.976 10.5418 9.76267 10.9151 9.592C11.2991 9.42133 11.7525 9.336 12.2751 9.336C13.0431 9.336 13.6991 9.50133 14.2431 9.832C14.7978 10.1627 15.2245 10.6213 15.5231 11.208C15.8218 11.784 15.9711 12.44 15.9711 13.176C15.9711 13.9227 15.8058 14.6 15.4751 15.208C15.1551 15.816 14.6965 16.3013 14.0991 16.664C13.5018 17.016 12.7978 17.192 11.9871 17.192Z" fill="white"/>
</svg>
