<svg width="56" height="56" viewBox="0 0 56 56" fill="none" xmlns="http://www.w3.org/2000/svg">
<rect width="56" height="56" rx="8" fill="#3686FF"/>
<path d="M7.672 32V23.6H10.672C11.544 23.6 12.204 23.8 12.652 24.2C13.1 24.6 13.324 25.116 13.324 25.748C13.324 26.236 13.196 26.632 12.94 26.936C12.684 27.24 12.388 27.46 12.052 27.596V27.68C12.452 27.824 12.796 28.06 13.084 28.388C13.372 28.708 13.516 29.132 13.516 29.66C13.516 30.092 13.408 30.488 13.192 30.848C12.984 31.2 12.676 31.48 12.268 31.688C11.86 31.896 11.36 32 10.768 32H7.672ZM8.944 27.104H10.516C11.004 27.104 11.376 27.008 11.632 26.816C11.888 26.616 12.016 26.316 12.016 25.916C12.016 25.124 11.508 24.728 10.492 24.728H8.944V27.104ZM8.944 30.824H10.6C11.12 30.824 11.52 30.712 11.8 30.488C12.08 30.264 12.22 29.936 12.22 29.504C12.22 29.08 12.072 28.756 11.776 28.532C11.48 28.3 11.08 28.184 10.576 28.184H8.944V30.824ZM14.8553 32V23.6H17.6033C18.2593 23.6 18.7993 23.712 19.2233 23.936C19.6553 24.16 19.9753 24.464 20.1833 24.848C20.3993 25.224 20.5073 25.652 20.5073 26.132C20.5073 26.676 20.3673 27.16 20.0873 27.584C19.8153 28 19.3953 28.304 18.8273 28.496L20.5913 32H19.1153L17.5073 28.676H16.1273V32H14.8553ZM16.1273 27.524H17.5313C18.1073 27.524 18.5273 27.396 18.7913 27.14C19.0633 26.884 19.1993 26.548 19.1993 26.132C19.1993 25.708 19.0673 25.372 18.8033 25.124C18.5393 24.868 18.1113 24.74 17.5193 24.74H16.1273V27.524ZM22.0506 32V30.872H23.8746V24.728H22.0746V23.6H26.9466V24.728H25.1466V30.872H26.9706V32H22.0506ZM28.5499 32V23.6H30.5659C31.9179 23.6 32.9219 23.976 33.5779 24.728C34.2339 25.472 34.5619 26.496 34.5619 27.8C34.5619 29.104 34.2339 30.132 33.5779 30.884C32.9219 31.628 31.9179 32 30.5659 32H28.5499ZM29.8219 30.824H30.5179C31.4939 30.824 32.1979 30.552 32.6299 30.008C33.0619 29.456 33.2779 28.72 33.2779 27.8C33.2779 26.88 33.0619 26.148 32.6299 25.604C32.1979 25.052 31.4939 24.776 30.5179 24.776H29.8219V30.824ZM38.3133 32.144C37.6893 32.144 37.1413 31.968 36.6693 31.616C36.1973 31.256 35.8293 30.752 35.5653 30.104C35.3013 29.456 35.1693 28.688 35.1693 27.8C35.1693 26.928 35.3013 26.168 35.5653 25.52C35.8293 24.872 36.2053 24.368 36.6933 24.008C37.1893 23.64 37.7813 23.456 38.4693 23.456C39.3013 23.456 39.9693 23.684 40.4733 24.14C40.9853 24.596 41.2973 25.24 41.4093 26.072H40.0293C39.9493 25.64 39.7733 25.296 39.5013 25.04C39.2373 24.784 38.8933 24.656 38.4693 24.656C37.8213 24.656 37.3253 24.936 36.9813 25.496C36.6373 26.056 36.4653 26.824 36.4653 27.8C36.4653 28.816 36.6453 29.596 37.0053 30.14C37.3733 30.676 37.8493 30.944 38.4333 30.944C38.8253 30.944 39.1493 30.828 39.4053 30.596C39.6613 30.364 39.8573 30.068 39.9933 29.708C40.1293 29.34 40.2133 28.952 40.2453 28.544H38.4813V27.488H41.5293V32H40.3533L40.2693 30.872H40.1973C40.0373 31.24 39.8133 31.544 39.5253 31.784C39.2373 32.024 38.8333 32.144 38.3133 32.144ZM42.7366 32V23.6H48.1006V24.74H44.0086V27.188H47.7406V28.316H44.0086V30.86H48.1006V32H42.7366Z" fill="white"/>
</svg>
